<svg width="1200" height="900" viewBox="0 0 1200 900" xmlns="http://www.w3.org/2000/svg" role="img" aria-labelledby="title desc">
  <title id="title">Casque audio sans fil premium</title>
  <desc id="desc">Illustration produit d'un casque audio moderne.</desc>
  <defs>
    <linearGradient id="bg" x1="0" y1="0" x2="1" y2="1">
      <stop offset="0%" stop-color="#eef4ff"/>
      <stop offset="100%" stop-color="#d7e4ff"/>
    </linearGradient>
    <linearGradient id="metal" x1="0" y1="0" x2="0" y2="1">
      <stop offset="0%" stop-color="#2a3868"/>
      <stop offset="100%" stop-color="#1d2b52"/>
    </linearGradient>
  </defs>
  <rect width="1200" height="900" fill="url(#bg)"/>
  <circle cx="160" cy="760" r="170" fill="#bfd3ff" opacity="0.45"/>
  <circle cx="1040" cy="120" r="130" fill="#b3cbff" opacity="0.4"/>

  <g transform="translate(270,140)">
    <path d="M170 290c0-150 102-250 250-250s250 100 250 250" fill="none" stroke="#21325f" stroke-width="40" stroke-linecap="round"/>
    <rect x="78" y="290" width="140" height="220" rx="62" fill="url(#metal)"/>
    <rect x="422" y="290" width="140" height="220" rx="62" fill="url(#metal)"/>
    <rect x="110" y="325" width="76" height="150" rx="34" fill="#111d3d"/>
    <rect x="454" y="325" width="76" height="150" rx="34" fill="#111d3d"/>
    <rect x="266" y="166" width="108" height="34" rx="17" fill="#eef3ff"/>
    <text x="320" y="188" text-anchor="middle" font-family="Arial, sans-serif" font-size="14" font-weight="700" fill="#2a3f73">PREMIUM</text>
  </g>

  <text x="600" y="840" text-anchor="middle" font-family="Arial, sans-serif" font-size="38" font-weight="700" fill="#243f74">Casque Audio Sans Fil</text>
</svg>
